HIERARCHY
ROOT Hips
{
	OFFSET 0.000000 0.000000 0.000000
	CHANNELS 6 Xposition Yposition Zposition Zrotation Yrotation Xrotation 
	JOINT LHipJoint
	{
		OFFSET 0.000000 0.000000 0.000000
		CHANNELS 3 Zrotation Yrotation Xrotation
		JOINT LeftUpLeg
		{
			OFFSET 1.363060 -1.794630 0.839290
			CHANNELS 3 Zrotation Yrotation Xrotation
			JOINT LeftLeg
			{
				OFFSET 2.448110 -6.726130 0.000000
				CHANNELS 3 Zrotation Yrotation Xrotation
				JOINT LeftFoot
				{
					OFFSET 2.562200 -7.039590 0.000000
					CHANNELS 3 Zrotation Yrotation Xrotation
					JOINT LeftToeBase
					{
						OFFSET 0.157640 -0.433110 2.322550
						CHANNELS 3 Zrotation Yrotation Xrotation
						End Site
						{
							OFFSET 0.000000 0.000000 0.000000
						}
					}
				}
			}
		}
	}
	JOINT RHipJoint
	{
		OFFSET 0.000000 0.000000 0.000000
		CHANNELS 3 Zrotation Yrotation Xrotation
		JOINT RightUpLeg
		{
			OFFSET -1.305520 -1.794630 0.839290
			CHANNELS 3 Zrotation Yrotation Xrotation
			JOINT RightLeg
			{
				OFFSET -2.542530 -6.985550 0.000000
				CHANNELS 3 Zrotation Yrotation Xrotation
				JOINT RightFoot
				{
					OFFSET -2.568260 -7.056230 0.000000
					CHANNELS 3 Zrotation Yrotation Xrotation
					JOINT RightToeBase
					{
						OFFSET -0.164730 -0.452590 2.363150
						CHANNELS 3 Zrotation Yrotation Xrotation
						End Site
						{
							OFFSET 0.000000 0.000000 0.000000
						}
					}
				}
			}
		}
	}
	JOINT LowerBack
	{
		OFFSET 0.000000 0.000000 0.000000
		CHANNELS 3 Zrotation Yrotation Xrotation
		JOINT Spine
		{
			OFFSET 0.028270 2.035590 -0.193380
			CHANNELS 3 Zrotation Yrotation Xrotation
			JOINT Spine1
			{
				OFFSET 0.056720 2.048850 -0.042750
				CHANNELS 3 Zrotation Yrotation Xrotation
				JOINT Neck
				{
					OFFSET 0.000000 0.000000 0.000000
					CHANNELS 3 Zrotation Yrotation Xrotation
					JOINT Neck1
					{
						OFFSET -0.054170 1.746240 0.172020
						CHANNELS 3 Zrotation Yrotation Xrotation
						JOINT Head
						{
							OFFSET 0.104070 1.761360 -0.123970
							CHANNELS 3 Zrotation Yrotation Xrotation
							End Site
							{
								OFFSET 0.000000 0.000000 0.000000
							}
						}
					}
				}
				JOINT LeftShoulder
				{
					OFFSET 0.000000 0.000000 0.000000
					CHANNELS 3 Zrotation Yrotation Xrotation
					JOINT LeftArm
					{
						OFFSET 3.362410 1.200890 -0.311210
						CHANNELS 3 Zrotation Yrotation Xrotation
						JOINT LeftForeArm
						{
							OFFSET 4.983000 -0.000000 -0.000000
							CHANNELS 3 Zrotation Yrotation Xrotation
							JOINT LeftHand
							{
								OFFSET 3.483560 -0.000000 -0.000000
								CHANNELS 3 Zrotation Yrotation Xrotation
								JOINT LeftFingerBase
								{
									OFFSET 0.000000 0.000000 0.000000
									CHANNELS 3 Zrotation Yrotation Xrotation
									JOINT LeftHandIndex1
									{
										OFFSET 0.715260 -0.000000 -0.000000
										CHANNELS 3 Zrotation Yrotation Xrotation
										End Site
										{
											OFFSET 0.000000 0.000000 0.000000
										}
									}
								}
								JOINT LThumb
								{
									OFFSET 0.000000 0.000000 0.000000
									CHANNELS 3 Zrotation Yrotation Xrotation
									End Site
									{
										OFFSET 0.000000 0.000000 0.000000
									}
								}
							}
						}
					}
				}
				JOINT RightShoulder
				{
					OFFSET 0.000000 0.000000 0.000000
					CHANNELS 3 Zrotation Yrotation Xrotation
					JOINT RightArm
					{
						OFFSET -3.136600 1.374050 -0.404650
						CHANNELS 3 Zrotation Yrotation Xrotation
						JOINT RightForeArm
						{
							OFFSET -5.241900 -0.000000 -0.000000
							CHANNELS 3 Zrotation Yrotation Xrotation
							JOINT RightHand
							{
								OFFSET -3.444170 -0.000000 -0.000000
								CHANNELS 3 Zrotation Yrotation Xrotation
								JOINT RightFingerBase
								{
									OFFSET 0.000000 0.000000 0.000000
									CHANNELS 3 Zrotation Yrotation Xrotation
									JOINT RightHandIndex1
									{
										OFFSET -0.622530 -0.000000 -0.000000
										CHANNELS 3 Zrotation Yrotation Xrotation
										End Site
										{
											OFFSET 0.000000 0.000000 0.000000
										}
									}
								}
								JOINT RThumb
								{
									OFFSET 0.000000 0.000000 0.000000
									CHANNELS 3 Zrotation Yrotation Xrotation
									End Site
									{
										OFFSET 0.000000 0.000000 0.000000
									}
								}
							}
						}
					}
				}
			}
		}
	}
}
MOTION
Frames: 5
Frame Time: 0.008333
2.021411 16.548460 2.020788 0.603910 -24.746469 17.491950 -2.086705 -3.920585 -4.730168 -0.319235 -8.778204 -59.816034 16.181474 21.227580 78.437569 2.916263 -17.258441 14.312977 1.643800 8.081000 22.960200 4.011602 1.078370 2.867046 22.609589 -10.737447 -14.864103 -4.264406 -13.221153 43.260140 -4.172412 16.206990 9.231066 -2.196400 9.263800 -26.624000 0.252007 5.147031 17.783527 -0.412265 6.691783 -3.830375 -1.083760 3.570261 -7.208351 -0.918930 -1.105695 -16.821360 -0.629186 -2.040145 3.693527 -1.835300 -1.529300 6.076500 3.212196 -3.027615 -0.466915 -72.243206 47.067199 16.871885 45.399722 -51.003744 -28.304963 -0.502847 -0.795722 -13.770702 19.023365 -8.675495 -2.838000 -7.125000 0.000000 0.000000 -5.176700 21.549000 2.925200 -4.422285 2.716986 -0.067426 76.818964 18.307266 35.640744 -106.728663 57.522051 -79.567980 1.551485 -0.067907 -5.630162 -27.211069 11.082742 -6.074000 7.125000 0.000000 0.000000 -1.133500 -17.270900 -0.746000 
1.749450 16.583183 2.580720 -0.432095 -23.556973 17.923990 -2.111160 -4.035271 -4.968194 -1.108582 -8.742341 -61.194478 15.053777 21.086502 75.372003 2.938304 -16.686784 15.364171 1.961300 8.785000 25.125000 4.158882 0.983643 3.274780 23.018191 -10.890226 -12.077208 -3.128592 -12.184216 39.880187 -3.963169 15.937914 16.572865 -1.796400 8.428500 -24.023300 0.876051 5.005490 17.473347 -0.244407 6.631756 -3.832767 -0.854375 3.548647 -7.058538 -1.005948 -1.380155 -16.967453 -0.324900 -2.371466 3.859929 -1.721300 -1.662200 6.194100 3.292512 -2.977783 -0.482268 -72.424534 48.038176 18.925767 47.354082 -51.885430 -29.872601 -0.484169 -0.786796 -13.900057 18.902066 -9.048214 -2.949000 -7.125000 0.000000 0.000000 -5.277900 21.157700 3.029800 -4.434500 2.726814 -0.073933 77.316103 17.429207 36.349729 -106.871674 57.534439 -79.609005 1.542781 -0.128615 -4.492332 -27.014278 11.336390 -6.172500 7.125000 0.000000 0.000000 -0.966400 -16.974900 -0.642200 
1.476969 16.612915 3.143147 -1.386755 -22.389860 18.238075 -2.177294 -4.160789 -5.189777 -2.297456 -8.532213 -62.163016 13.810144 20.839146 72.009410 2.949649 -15.802423 16.585964 2.322100 9.507100 27.394800 4.323396 0.888011 3.663146 23.377243 -10.654730 -9.246587 -2.187636 -11.173982 36.645481 -3.866950 14.174104 23.621721 -1.502800 7.743100 -21.936400 1.456559 4.859435 17.242897 -0.091003 6.551530 -3.826087 -0.648330 3.517426 -6.920496 -1.093794 -1.645874 -17.132474 -0.016383 -2.690754 4.005526 -1.603200 -1.788400 6.308000 3.358950 -2.936529 -0.495158 -72.793760 48.718205 20.646034 49.326189 -52.698065 -31.443721 -0.465531 -0.777610 -14.339232 18.806050 -9.362017 -3.043600 -7.125000 0.000000 0.000000 -5.358600 20.823400 3.117100 -4.440292 2.748317 -0.078749 77.900592 16.338888 36.939275 -106.461196 57.617626 -79.216049 1.532511 -0.169709 -3.563808 -26.797985 11.442216 -6.179500 7.125000 0.000000 0.000000 -0.799700 -16.862800 -0.533400 
1.206048 16.636203 3.707030 -2.282261 -21.298886 18.469556 -2.273566 -4.292607 -5.392126 -3.834063 -8.115140 -62.755132 12.486132 20.476667 68.431925 2.952024 -14.701486 18.016377 2.687900 10.171800 29.534900 4.488416 0.786520 4.006064 23.723108 -10.066817 -6.487862 -1.533959 -10.310842 33.799215 -3.884642 11.462942 29.426583 -1.358700 7.378300 -20.841000 2.012695 4.722767 17.077251 0.043670 6.473387 -3.814604 -0.484530 3.488349 -6.796828 -1.177978 -1.893071 -17.290780 0.275762 -2.987339 4.111041 -1.488700 -1.904700 6.401800 3.412804 -2.903516 -0.504797 -73.357968 49.123908 22.016031 51.336302 -53.452569 -33.039338 -0.445319 -0.768860 -15.014041 18.695755 -9.571397 -3.099000 -7.125000 0.000000 0.000000 -5.448700 20.598300 3.197700 -4.439615 2.779630 -0.082015 78.557568 15.062987 37.401642 -105.492950 57.762867 -78.384423 1.521907 -0.186403 -2.961199 -26.565963 11.371709 -6.083000 7.125000 0.000000 0.000000 -0.637800 -16.966800 -0.423900 
0.940324 16.643376 4.269353 -3.147620 -20.306076 18.649922 -2.384261 -4.428559 -5.571841 -5.620154 -7.511547 -63.067499 11.137070 20.004856 64.772040 2.947085 -13.456080 19.708121 3.028700 10.741400 31.412600 4.622315 0.689095 4.275177 24.110618 -9.213993 -3.956170 -1.178552 -9.707354 31.660639 -3.917300 8.569625 33.459119 -1.354500 7.367200 -20.808000 2.583695 4.599852 16.973162 0.156980 6.411779 -3.804187 -0.384959 3.467841 -6.697016 -1.255936 -2.117076 -17.423528 0.539680 -3.256666 4.166611 -1.382100 -2.010200 6.465700 3.454804 -2.879078 -0.510264 -74.116199 49.276892 23.042170 53.364346 -54.145112 -34.643635 -0.424971 -0.758043 -15.764071 18.613411 -9.698364 -3.130900 -7.125000 0.000000 0.000000 -5.518500 20.455600 3.256800 -4.432443 2.818109 -0.085039 79.264572 13.629934 37.737904 -103.975847 57.948022 -77.118213 1.511058 -0.177520 -2.750205 -26.306219 11.125185 -5.883000 7.125000 0.000000 0.000000 -0.470400 -17.286100 -0.309400 
